<svg width="289" height="88" viewBox="0 0 289 88" fill="none" xmlns="http://www.w3.org/2000/svg">
<rect width="289" height="88" rx="12" fill="white"/>
<path d="M95.3056 18.1C96.7856 18.1 98.079 18.3867 99.1856 18.96C100.306 19.52 101.166 20.3333 101.766 21.4C102.379 22.4533 102.686 23.6867 102.686 25.1C102.686 26.5133 102.379 27.74 101.766 28.78C101.166 29.82 100.306 30.62 99.1856 31.18C98.079 31.7267 96.7856 32 95.3056 32H90.7656V18.1H95.3056ZM95.3056 30.14C96.9323 30.14 98.179 29.7 99.0456 28.82C99.9123 27.94 100.346 26.7 100.346 25.1C100.346 23.4867 99.9123 22.2267 99.0456 21.32C98.179 20.4133 96.9323 19.96 95.3056 19.96H93.0456V30.14H95.3056ZM109.725 32.18C108.685 32.18 107.745 31.9467 106.905 31.48C106.065 31 105.405 30.3333 104.925 29.48C104.445 28.6133 104.205 27.6133 104.205 26.48C104.205 25.36 104.452 24.3667 104.945 23.5C105.439 22.6333 106.112 21.9667 106.965 21.5C107.819 21.0333 108.772 20.8 109.825 20.8C110.879 20.8 111.832 21.0333 112.685 21.5C113.539 21.9667 114.212 22.6333 114.705 23.5C115.199 24.3667 115.445 25.36 115.445 26.48C115.445 27.6 115.192 28.5933 114.685 29.46C114.179 30.3267 113.485 31 112.605 31.48C111.739 31.9467 110.779 32.18 109.725 32.18ZM109.725 30.2C110.312 30.2 110.859 30.06 111.365 29.78C111.885 29.5 112.305 29.08 112.625 28.52C112.945 27.96 113.105 27.28 113.105 26.48C113.105 25.68 112.952 25.0067 112.645 24.46C112.339 23.9 111.932 23.48 111.425 23.2C110.919 22.92 110.372 22.78 109.785 22.78C109.199 22.78 108.652 22.92 108.145 23.2C107.652 23.48 107.259 23.9 106.965 24.46C106.672 25.0067 106.525 25.68 106.525 26.48C106.525 27.6667 106.825 28.5867 107.425 29.24C108.039 29.88 108.805 30.2 109.725 30.2ZM132.499 20.98L129.079 32H126.679L124.459 23.86L122.239 32H119.839L116.399 20.98H118.719L121.019 29.84L123.359 20.98H125.739L127.979 29.8L130.259 20.98H132.499ZM139.763 20.8C140.63 20.8 141.403 20.98 142.083 21.34C142.776 21.7 143.316 22.2333 143.703 22.94C144.09 23.6467 144.283 24.5 144.283 25.5V32H142.023V25.84C142.023 24.8533 141.776 24.1 141.283 23.58C140.79 23.0467 140.116 22.78 139.263 22.78C138.41 22.78 137.73 23.0467 137.223 23.58C136.73 24.1 136.483 24.8533 136.483 25.84V32H134.203V20.98H136.483V22.24C136.856 21.7867 137.33 21.4333 137.903 21.18C138.49 20.9267 139.11 20.8 139.763 20.8ZM149.471 17.2V32H147.191V17.2H149.471ZM157.245 32.18C156.205 32.18 155.265 31.9467 154.425 31.48C153.585 31 152.925 30.3333 152.445 29.48C151.965 28.6133 151.725 27.6133 151.725 26.48C151.725 25.36 151.972 24.3667 152.465 23.5C152.958 22.6333 153.632 21.9667 154.485 21.5C155.338 21.0333 156.292 20.8 157.345 20.8C158.398 20.8 159.352 21.0333 160.205 21.5C161.058 21.9667 161.732 22.6333 162.225 23.5C162.718 24.3667 162.965 25.36 162.965 26.48C162.965 27.6 162.712 28.5933 162.205 29.46C161.698 30.3267 161.005 31 160.125 31.48C159.258 31.9467 158.298 32.18 157.245 32.18ZM157.245 30.2C157.832 30.2 158.378 30.06 158.885 29.78C159.405 29.5 159.825 29.08 160.145 28.52C160.465 27.96 160.625 27.28 160.625 26.48C160.625 25.68 160.472 25.0067 160.165 24.46C159.858 23.9 159.452 23.48 158.945 23.2C158.438 22.92 157.892 22.78 157.305 22.78C156.718 22.78 156.172 22.92 155.665 23.2C155.172 23.48 154.778 23.9 154.485 24.46C154.192 25.0067 154.045 25.68 154.045 26.48C154.045 27.6667 154.345 28.5867 154.945 29.24C155.558 29.88 156.325 30.2 157.245 30.2ZM164.459 26.44C164.459 25.3333 164.685 24.3533 165.139 23.5C165.605 22.6467 166.232 21.9867 167.019 21.52C167.819 21.04 168.699 20.8 169.659 20.8C170.525 20.8 171.279 20.9733 171.919 21.32C172.572 21.6533 173.092 22.0733 173.479 22.58V20.98H175.779V32H173.479V30.36C173.092 30.88 172.565 31.3133 171.899 31.66C171.232 32.0067 170.472 32.18 169.619 32.18C168.672 32.18 167.805 31.94 167.019 31.46C166.232 30.9667 165.605 30.2867 165.139 29.42C164.685 28.54 164.459 27.5467 164.459 26.44ZM173.479 26.48C173.479 25.72 173.319 25.06 172.999 24.5C172.692 23.94 172.285 23.5133 171.779 23.22C171.272 22.9267 170.725 22.78 170.139 22.78C169.552 22.78 169.005 22.9267 168.499 23.22C167.992 23.5 167.579 23.92 167.259 24.48C166.952 25.0267 166.799 25.68 166.799 26.44C166.799 27.2 166.952 27.8667 167.259 28.44C167.579 29.0133 167.992 29.4533 168.499 29.76C169.019 30.0533 169.565 30.2 170.139 30.2C170.725 30.2 171.272 30.0533 171.779 29.76C172.285 29.4667 172.692 29.04 172.999 28.48C173.319 27.9067 173.479 27.24 173.479 26.48ZM178.013 26.44C178.013 25.3333 178.24 24.3533 178.693 23.5C179.16 22.6467 179.787 21.9867 180.573 21.52C181.373 21.04 182.26 20.8 183.233 20.8C183.953 20.8 184.66 20.96 185.353 21.28C186.06 21.5867 186.62 22 187.033 22.52V17.2H189.333V32H187.033V30.34C186.66 30.8733 186.14 31.3133 185.473 31.66C184.82 32.0067 184.067 32.18 183.213 32.18C182.253 32.18 181.373 31.94 180.573 31.46C179.787 30.9667 179.16 30.2867 178.693 29.42C178.24 28.54 178.013 27.5467 178.013 26.44ZM187.033 26.48C187.033 25.72 186.873 25.06 186.553 24.5C186.247 23.94 185.84 23.5133 185.333 23.22C184.827 22.9267 184.28 22.78 183.693 22.78C183.107 22.78 182.56 22.9267 182.053 23.22C181.547 23.5 181.133 23.92 180.813 24.48C180.507 25.0267 180.353 25.68 180.353 26.44C180.353 27.2 180.507 27.8667 180.813 28.44C181.133 29.0133 181.547 29.4533 182.053 29.76C182.573 30.0533 183.12 30.2 183.693 30.2C184.28 30.2 184.827 30.0533 185.333 29.76C185.84 29.4667 186.247 29.04 186.553 28.48C186.873 27.9067 187.033 27.24 187.033 26.48ZM202.303 32.18C201.263 32.18 200.323 31.9467 199.483 31.48C198.643 31 197.983 30.3333 197.503 29.48C197.023 28.6133 196.783 27.6133 196.783 26.48C196.783 25.36 197.03 24.3667 197.523 23.5C198.017 22.6333 198.69 21.9667 199.543 21.5C200.397 21.0333 201.35 20.8 202.403 20.8C203.457 20.8 204.41 21.0333 205.263 21.5C206.117 21.9667 206.79 22.6333 207.283 23.5C207.777 24.3667 208.023 25.36 208.023 26.48C208.023 27.6 207.77 28.5933 207.263 29.46C206.757 30.3267 206.063 31 205.183 31.48C204.317 31.9467 203.357 32.18 202.303 32.18ZM202.303 30.2C202.89 30.2 203.437 30.06 203.943 29.78C204.463 29.5 204.883 29.08 205.203 28.52C205.523 27.96 205.683 27.28 205.683 26.48C205.683 25.68 205.53 25.0067 205.223 24.46C204.917 23.9 204.51 23.48 204.003 23.2C203.497 22.92 202.95 22.78 202.363 22.78C201.777 22.78 201.23 22.92 200.723 23.2C200.23 23.48 199.837 23.9 199.543 24.46C199.25 25.0067 199.103 25.68 199.103 26.48C199.103 27.6667 199.403 28.5867 200.003 29.24C200.617 29.88 201.383 30.2 202.303 30.2ZM215.837 20.8C216.704 20.8 217.477 20.98 218.157 21.34C218.851 21.7 219.391 22.2333 219.777 22.94C220.164 23.6467 220.357 24.5 220.357 25.5V32H218.097V25.84C218.097 24.8533 217.851 24.1 217.357 23.58C216.864 23.0467 216.191 22.78 215.337 22.78C214.484 22.78 213.804 23.0467 213.297 23.58C212.804 24.1 212.557 24.8533 212.557 25.84V32H210.277V20.98H212.557V22.24C212.931 21.7867 213.404 21.4333 213.977 21.18C214.564 20.9267 215.184 20.8 215.837 20.8ZM231.121 22.84V28.94C231.121 29.3533 231.214 29.6533 231.401 29.84C231.601 30.0133 231.934 30.1 232.401 30.1H233.801V32H232.001C230.974 32 230.188 31.76 229.641 31.28C229.094 30.8 228.821 30.02 228.821 28.94V22.84H227.521V20.98H228.821V18.24H231.121V20.98H233.801V22.84H231.121ZM241.602 20.8C242.442 20.8 243.189 20.98 243.842 21.34C244.509 21.7 245.029 22.2333 245.402 22.94C245.789 23.6467 245.982 24.5 245.982 25.5V32H243.722V25.84C243.722 24.8533 243.476 24.1 242.982 23.58C242.489 23.0467 241.816 22.78 240.962 22.78C240.109 22.78 239.429 23.0467 238.922 23.58C238.429 24.1 238.182 24.8533 238.182 25.84V32H235.902V17.2H238.182V22.26C238.569 21.7933 239.056 21.4333 239.642 21.18C240.242 20.9267 240.896 20.8 241.602 20.8ZM258.991 26.22C258.991 26.6333 258.964 27.0067 258.911 27.34H250.491C250.557 28.22 250.884 28.9267 251.471 29.46C252.057 29.9933 252.777 30.26 253.631 30.26C254.857 30.26 255.724 29.7467 256.231 28.72H258.691C258.357 29.7333 257.751 30.5667 256.871 31.22C256.004 31.86 254.924 32.18 253.631 32.18C252.577 32.18 251.631 31.9467 250.791 31.48C249.964 31 249.311 30.3333 248.831 29.48C248.364 28.6133 248.131 27.6133 248.131 26.48C248.131 25.3467 248.357 24.3533 248.811 23.5C249.277 22.6333 249.924 21.9667 250.751 21.5C251.591 21.0333 252.551 20.8 253.631 20.8C254.671 20.8 255.597 21.0267 256.411 21.48C257.224 21.9333 257.857 22.5733 258.311 23.4C258.764 24.2133 258.991 25.1533 258.991 26.22ZM256.611 25.5C256.597 24.66 256.297 23.9867 255.711 23.48C255.124 22.9733 254.397 22.72 253.531 22.72C252.744 22.72 252.071 22.9733 251.511 23.48C250.951 23.9733 250.617 24.6467 250.511 25.5H256.611Z" fill="#333333"/>
<path d="M103.919 61.74H95.1886L93.6886 66H90.1186L97.5886 45.12H101.549L109.019 66H105.419L103.919 61.74ZM102.959 58.95L99.5686 49.26L96.1486 58.95H102.959ZM115.687 51.9C116.267 51.14 117.057 50.5 118.057 49.98C119.057 49.46 120.187 49.2 121.447 49.2C122.887 49.2 124.197 49.56 125.377 50.28C126.577 50.98 127.517 51.97 128.197 53.25C128.877 54.53 129.217 56 129.217 57.66C129.217 59.32 128.877 60.81 128.197 62.13C127.517 63.43 126.577 64.45 125.377 65.19C124.197 65.91 122.887 66.27 121.447 66.27C120.187 66.27 119.067 66.02 118.087 65.52C117.107 65 116.307 64.36 115.687 63.6V73.86H112.267V49.47H115.687V51.9ZM125.737 57.66C125.737 56.52 125.497 55.54 125.017 54.72C124.557 53.88 123.937 53.25 123.157 52.83C122.397 52.39 121.577 52.17 120.697 52.17C119.837 52.17 119.017 52.39 118.237 52.83C117.477 53.27 116.857 53.91 116.377 54.75C115.917 55.59 115.687 56.58 115.687 57.72C115.687 58.86 115.917 59.86 116.377 60.72C116.857 61.56 117.477 62.2 118.237 62.64C119.017 63.08 119.837 63.3 120.697 63.3C121.577 63.3 122.397 63.08 123.157 62.64C123.937 62.18 124.557 61.52 125.017 60.66C125.497 59.8 125.737 58.8 125.737 57.66ZM136.019 51.9C136.599 51.14 137.389 50.5 138.389 49.98C139.389 49.46 140.519 49.2 141.779 49.2C143.219 49.2 144.529 49.56 145.709 50.28C146.909 50.98 147.849 51.97 148.529 53.25C149.209 54.53 149.549 56 149.549 57.66C149.549 59.32 149.209 60.81 148.529 62.13C147.849 63.43 146.909 64.45 145.709 65.19C144.529 65.91 143.219 66.27 141.779 66.27C140.519 66.27 139.399 66.02 138.419 65.52C137.439 65 136.639 64.36 136.019 63.6V73.86H132.599V49.47H136.019V51.9ZM146.069 57.66C146.069 56.52 145.829 55.54 145.349 54.72C144.889 53.88 144.269 53.25 143.489 52.83C142.729 52.39 141.909 52.17 141.029 52.17C140.169 52.17 139.349 52.39 138.569 52.83C137.809 53.27 137.189 53.91 136.709 54.75C136.249 55.59 136.019 56.58 136.019 57.72C136.019 58.86 136.249 59.86 136.709 60.72C137.189 61.56 137.809 62.2 138.569 62.64C139.349 63.08 140.169 63.3 141.029 63.3C141.909 63.3 142.729 63.08 143.489 62.64C144.269 62.18 144.889 61.52 145.349 60.66C145.829 59.8 146.069 58.8 146.069 57.66ZM167.594 66.21C166.194 66.21 164.934 65.97 163.814 65.49C162.694 64.99 161.814 64.29 161.174 63.39C160.534 62.49 160.214 61.44 160.214 60.24H163.874C163.954 61.14 164.304 61.88 164.924 62.46C165.564 63.04 166.454 63.33 167.594 63.33C168.774 63.33 169.694 63.05 170.354 62.49C171.014 61.91 171.344 61.17 171.344 60.27C171.344 59.57 171.134 59 170.714 58.56C170.314 58.12 169.804 57.78 169.184 57.54C168.584 57.3 167.744 57.04 166.664 56.76C165.304 56.4 164.194 56.04 163.334 55.68C162.494 55.3 161.774 54.72 161.174 53.94C160.574 53.16 160.274 52.12 160.274 50.82C160.274 49.62 160.574 48.57 161.174 47.67C161.774 46.77 162.614 46.08 163.694 45.6C164.774 45.12 166.024 44.88 167.444 44.88C169.464 44.88 171.114 45.39 172.394 46.41C173.694 47.41 174.414 48.79 174.554 50.55H170.774C170.714 49.79 170.354 49.14 169.694 48.6C169.034 48.06 168.164 47.79 167.084 47.79C166.104 47.79 165.304 48.04 164.684 48.54C164.064 49.04 163.754 49.76 163.754 50.7C163.754 51.34 163.944 51.87 164.324 52.29C164.724 52.69 165.224 53.01 165.824 53.25C166.424 53.49 167.244 53.75 168.284 54.03C169.664 54.41 170.784 54.79 171.644 55.17C172.524 55.55 173.264 56.14 173.864 56.94C174.484 57.72 174.794 58.77 174.794 60.09C174.794 61.15 174.504 62.15 173.924 63.09C173.364 64.03 172.534 64.79 171.434 65.37C170.354 65.93 169.074 66.21 167.594 66.21ZM182.819 52.26V61.41C182.819 62.03 182.959 62.48 183.239 62.76C183.539 63.02 184.039 63.15 184.739 63.15H186.839V66H184.139C182.599 66 181.419 65.64 180.599 64.92C179.779 64.2 179.369 63.03 179.369 61.41V52.26H177.419V49.47H179.369V45.36H182.819V49.47H186.839V52.26H182.819ZM197.161 66.27C195.601 66.27 194.191 65.92 192.931 65.22C191.671 64.5 190.681 63.5 189.961 62.22C189.241 60.92 188.881 59.42 188.881 57.72C188.881 56.04 189.251 54.55 189.991 53.25C190.731 51.95 191.741 50.95 193.021 50.25C194.301 49.55 195.731 49.2 197.311 49.2C198.891 49.2 200.321 49.55 201.601 50.25C202.881 50.95 203.891 51.95 204.631 53.25C205.371 54.55 205.741 56.04 205.741 57.72C205.741 59.4 205.361 60.89 204.601 62.19C203.841 63.49 202.801 64.5 201.481 65.22C200.181 65.92 198.741 66.27 197.161 66.27ZM197.161 63.3C198.041 63.3 198.861 63.09 199.621 62.67C200.401 62.25 201.031 61.62 201.511 60.78C201.991 59.94 202.231 58.92 202.231 57.72C202.231 56.52 202.001 55.51 201.541 54.69C201.081 53.85 200.471 53.22 199.711 52.8C198.951 52.38 198.131 52.17 197.251 52.17C196.371 52.17 195.551 52.38 194.791 52.8C194.051 53.22 193.461 53.85 193.021 54.69C192.581 55.51 192.361 56.52 192.361 57.72C192.361 59.5 192.811 60.88 193.711 61.86C194.631 62.82 195.781 63.3 197.161 63.3ZM212.542 51.87C213.042 51.03 213.702 50.38 214.522 49.92C215.362 49.44 216.352 49.2 217.492 49.2V52.74H216.622C215.282 52.74 214.262 53.08 213.562 53.76C212.882 54.44 212.542 55.62 212.542 57.3V66H209.122V49.47H212.542V51.87ZM235.786 57.33C235.786 57.95 235.746 58.51 235.666 59.01H223.036C223.136 60.33 223.626 61.39 224.506 62.19C225.386 62.99 226.466 63.39 227.746 63.39C229.586 63.39 230.886 62.62 231.646 61.08H235.336C234.836 62.6 233.926 63.85 232.606 64.83C231.306 65.79 229.686 66.27 227.746 66.27C226.166 66.27 224.746 65.92 223.486 65.22C222.246 64.5 221.266 63.5 220.546 62.22C219.846 60.92 219.496 59.42 219.496 57.72C219.496 56.02 219.836 54.53 220.516 53.25C221.216 51.95 222.186 50.95 223.426 50.25C224.686 49.55 226.126 49.2 227.746 49.2C229.306 49.2 230.696 49.54 231.916 50.22C233.136 50.9 234.086 51.86 234.766 53.1C235.446 54.32 235.786 55.73 235.786 57.33ZM232.216 56.25C232.196 54.99 231.746 53.98 230.866 53.22C229.986 52.46 228.896 52.08 227.596 52.08C226.416 52.08 225.406 52.46 224.566 53.22C223.726 53.96 223.226 54.97 223.066 56.25H232.216Z" fill="#333333"/>
<path d="M60.7969 24H37.2031C32.6799 24 29 27.6799 29 32.2031V55.7969C29 60.3201 32.6799 64 37.2031 64H60.7969C65.3201 64 69 60.3201 69 55.7969V32.2031C69 27.6799 65.3201 24 60.7969 24ZM41.3163 54.8215C40.955 55.4473 40.2971 55.7976 39.6216 55.7977C39.2904 55.7977 38.9551 55.7135 38.6483 55.5364C37.7156 54.998 37.3949 53.8011 37.9334 52.8684L38.3175 52.2031H42.828L41.3163 54.8215ZM37.6328 50.6406C36.5559 50.6406 35.6797 49.7645 35.6797 48.6875C35.6797 47.6105 36.5559 46.7344 37.6328 46.7344H41.4748L46.7447 37.6067L45.3165 35.133C44.778 34.2003 45.0987 33.0034 46.0313 32.4649H46.0314C46.9641 31.9265 48.1609 32.2473 48.6994 33.1798L49 33.7005L49.3006 33.1799C49.8393 32.2472 51.0362 31.9266 51.9686 32.465C52.4204 32.7259 52.7436 33.147 52.8786 33.6509C53.0137 34.1548 52.9443 34.6813 52.6834 35.133L45.9854 46.7344H50.2103L52.4656 50.6406H37.6328ZM60.3672 50.6406H58.7804L60.0666 52.8684C60.6051 53.8009 60.2844 54.9978 59.3518 55.5363C59.0508 55.7101 58.7167 55.7989 58.3783 55.7989C58.2086 55.7989 58.038 55.7766 57.8696 55.7315C57.3656 55.5964 56.9445 55.2732 56.6836 54.8213L49.902 43.0754L52.1573 39.1691L56.5252 46.7344H60.3672C61.4441 46.7344 62.3203 47.6105 62.3203 48.6875C62.3203 49.7645 61.4441 50.6406 60.3672 50.6406Z" fill="black"/>
</svg>
