<svg width="95" height="100" viewBox="0 0 95 100" fill="none" xmlns="http://www.w3.org/2000/svg">
<ellipse cx="47.0905" cy="50" rx="47.0905" ry="50" fill="white"/>
<path d="M93.6811 50C93.6811 77.3668 72.794 99.5 47.0905 99.5C21.3871 99.5 0.5 77.3668 0.5 50C0.5 22.6332 21.3871 0.5 47.0905 0.5C72.794 0.5 93.6811 22.6332 93.6811 50Z" stroke="#212121" stroke-opacity="0.5"/>
<g clip-path="url(#clip0)">
<path d="M30.1729 30H53.9623C58.1428 30 61.5317 33.9175 61.5317 38.75V61.25C61.5317 66.0825 58.1428 70 53.9623 70H30.1729C25.9924 70 22.6035 66.0825 22.6035 61.25V38.75C22.6035 33.9175 25.9924 30 30.1729 30ZM30.1729 35C28.3813 35 26.9289 36.6789 26.9289 38.75V61.25C26.9289 63.3211 28.3813 65 30.1729 65H53.9623C55.7539 65 57.2063 63.3211 57.2063 61.25V38.75C57.2063 36.6789 55.7539 35 53.9623 35H30.1729ZM67.378 37.5891L74.5869 35.2521C77.2704 34.3822 80.0558 36.1917 80.8083 39.2936C80.9327 39.8063 80.9958 40.3363 80.9958 40.8688V59.1327C80.9958 62.3543 78.7365 64.966 75.9495 64.966C75.4889 64.966 75.0305 64.8931 74.5869 64.7493L67.378 62.4124C65.1999 61.7062 63.6944 59.4107 63.6944 56.7957V43.2057C63.6944 40.5907 65.1999 38.2952 67.378 37.5891ZM68.546 42.4034C68.2348 42.5042 68.0197 42.8322 68.0197 43.2057V56.7957C68.0197 57.1693 68.2348 57.4972 68.546 57.5981L75.7549 59.9351C75.8182 59.9556 75.8837 59.966 75.9495 59.966C76.3477 59.966 76.6704 59.5929 76.6704 59.1327V40.8688C76.6704 40.7927 76.6614 40.717 76.6436 40.6437C76.5361 40.2006 76.1382 39.9421 75.7549 40.0664L68.546 42.4034Z" fill="#272727" fill-opacity="0.5"/>
</g>
<defs>
<clipPath id="clip0">
<rect width="58.3923" height="50" fill="white" transform="translate(22.6035 30)"/>
</clipPath>
</defs>
</svg>
