<svg width="95" height="100" viewBox="0 0 95 100" fill="none" xmlns="http://www.w3.org/2000/svg">
<ellipse cx="47.0905" cy="50" rx="47.0905" ry="50" fill="white"/>
<path d="M93.6811 50C93.6811 77.3668 72.794 99.5 47.0905 99.5C21.3871 99.5 0.5 77.3668 0.5 50C0.5 22.6332 21.3871 0.5 47.0905 0.5C72.794 0.5 93.6811 22.6332 93.6811 50Z" stroke="#212121" stroke-opacity="0.5"/>
<path d="M79.9009 39.7368C79.1975 38.9673 78.1239 38.6366 77.2282 38.4919C77.89 37.6166 78.2826 36.5756 78.2826 35.4543C78.2826 32.3814 75.39 29.8793 71.8376 29.8793C69.4132 29.8793 67.2441 31.0497 66.1386 32.8853L57.8648 33.4439C56.5994 33.4439 55.4428 34.0374 54.92 34.9549C54.4125 35.8442 54.2426 37.3138 56.325 39.2638C56.7115 39.6256 57.0292 39.941 57.3183 40.2365C54.759 41.0763 53.2997 42.4962 52.5495 44.828C52.5486 44.8304 52.5475 44.8328 52.5466 44.8354C52.5445 44.842 52.5415 44.8475 52.5395 44.8541C52.172 46.0107 50.5101 47.0309 49.4101 47.5675C49.0085 47.0487 48.629 46.5088 48.3117 45.9281L47.8195 45.0161C45.6872 41.0501 43.8531 37.6267 37.4495 39.2093C32.5117 40.4321 20.4144 44.3322 15.4418 45.9526C14.8405 46.1486 14.4115 46.5932 14.2939 47.1415C14.1784 47.6917 14.4006 48.2437 14.8907 48.6149C15.2587 48.8937 15.7074 49.0331 16.215 49.0087L18.8026 48.8787C19.1685 48.8618 19.5323 48.7996 19.8852 48.6922C20.7107 48.4415 21.6211 48.434 22.4489 48.677L22.7713 48.7712C24.1391 49.1706 25.6181 48.871 26.6352 47.9912C27.2408 47.4712 28.0336 47.1754 28.8721 47.1566C31.329 47.1038 35.3673 46.8476 39.0919 45.8509C39.5581 48.2788 41.0828 54.7376 44.5065 57.7151H20.4423C19.9501 57.7151 19.5492 58.0617 19.5492 58.4877C19.5492 58.9134 19.9499 59.2602 20.4423 59.2602H48.3315C48.3441 59.2603 48.3554 59.2639 48.3682 59.2639C48.3952 59.2639 48.4237 59.2604 48.4509 59.2602H69.2803C69.7725 59.2602 70.1734 58.9136 70.1734 58.4877C70.1734 58.0619 69.7727 57.7151 69.2803 57.7151H53.3995C54.51 56.904 55.501 55.7144 56.0447 53.9592C57.1876 53.2549 60.1793 51.4156 61.084 50.9305L67.344 47.573C69.0277 46.5367 69.5832 44.6036 68.6639 42.9739C68.6248 42.9045 68.5655 42.8414 68.5195 42.7737C69.4029 41.0983 70.998 40.984 71.086 40.9786C71.0861 40.9786 71.0863 40.9785 71.0864 40.9785C71.3347 41.004 71.5834 41.0296 71.8374 41.0296C72.9876 41.0296 74.0531 40.7457 74.9893 40.2868C74.9601 41.0911 74.6382 42.4749 73.1923 44.4642C72.8198 44.9786 72.504 45.5552 72.2492 46.1788C71.0185 49.2235 72.6347 52.6507 76.0065 54.1505C76.0065 54.1523 76.0086 54.1523 76.0086 54.1523C76.0238 54.1599 76.2352 54.2465 76.2504 54.2522C76.3636 54.2955 76.4857 54.3181 76.6075 54.3181C76.7927 54.3181 76.9777 54.2672 77.1324 54.1693C77.3895 54.0073 77.5267 53.7397 77.494 53.4665L77.4047 52.7148C77.152 50.5951 77.5572 48.5302 78.5765 46.7422C79.3345 45.4139 79.9356 44.0818 80.367 42.7875C80.7764 41.5474 80.6219 40.5205 79.9009 39.7368ZM48.8255 57.6999C44.0728 58.0917 41.5244 49.4268 40.799 45.3307C41.5309 45.0764 42.2388 44.7881 42.9032 44.4603C43.3322 44.2493 43.4826 43.7782 43.2386 43.409C42.9968 43.036 42.4436 42.9116 42.0233 43.1189C37.7803 45.2046 31.3809 45.5588 28.8282 45.6153C27.5322 45.6416 26.3059 46.0975 25.3737 46.8983C24.84 47.3618 24.0581 47.5219 23.3437 47.309L23.0213 47.2148C21.8103 46.8588 20.4881 46.8701 19.2946 47.2355C19.1029 47.2939 18.9047 47.3278 18.7021 47.3372L16.0709 47.3956C21.0217 45.7827 33.0647 41.9016 37.9415 40.6938C42.875 39.4673 44.0533 41.6736 46.2009 45.6679L46.6997 46.5874C48.7434 50.332 52.708 52.9263 54.185 53.8029C54.1918 53.8269 54.2114 53.848 54.2208 53.8716C52.8557 57.6578 49.0881 57.6962 48.8255 57.6999ZM55.2435 52.5576C54.3562 52.0391 52.3085 50.7271 50.4795 48.8107C51.4479 48.3201 52.8684 47.4533 53.7101 46.2881L59.1248 50.2039C57.9215 50.9134 56.2071 51.9637 55.2435 52.5576ZM66.3573 46.2878L60.6913 49.325L54.4358 44.801C55.1105 43.0914 56.3062 42.1222 58.4772 41.526C58.9322 42.1002 59.0998 42.4361 59.1564 42.5948C59.3589 43.1695 59.5963 43.6179 59.9012 44.0004C60.9554 45.3344 62.332 46.0673 63.7782 46.0673C63.787 46.0673 63.7934 46.0673 63.8 46.0673C64.2944 46.0636 64.6908 45.7168 64.6887 45.291C64.6844 44.8653 64.2856 44.5223 63.7956 44.5223C63.7934 44.5223 63.7913 44.5223 63.7913 44.5223C63.787 44.5223 63.7825 44.5223 63.7782 44.5223C62.7044 44.5223 61.8767 43.7649 61.3713 43.1282C61.171 42.8757 61.0097 42.5649 60.8638 42.1446C60.6826 41.6347 60.2289 40.9757 59.5624 40.2028C59.5385 40.1712 59.513 40.1434 59.4842 40.1157C58.9846 39.5444 58.3893 38.9218 57.6358 38.2164C56.8669 37.4966 56.048 36.4642 56.5185 35.637C56.745 35.2432 57.2721 34.9889 57.9343 34.9851L66.5423 34.403C66.8167 34.4143 68.2914 34.68 69.4828 34.9155C69.7768 34.9796 70.0121 35.1661 70.1122 35.4148C70.2081 35.6521 70.1493 36.0347 70.0752 36.3116C69.964 36.3173 69.8095 36.3153 69.6678 36.304C68.9294 36.0082 68.117 35.8518 67.3068 35.8518H61.929C61.2625 35.8518 60.6766 36.2004 60.4348 36.7392C60.1952 37.28 60.3608 37.8791 60.8313 38.2465L66.5248 43.0661C66.7666 43.2527 66.9475 43.4505 67.0606 43.6521C67.6031 44.6129 67.296 45.7094 66.3573 46.2878ZM66.1338 38.0293C65.8384 38.3108 65.152 38.6972 63.7479 38.5565L62.3779 37.3968H65.8002C65.8947 37.6162 66.0103 37.8251 66.1338 38.0293ZM67.2516 41.522L65.4868 40.0282C66.2453 39.8761 66.8032 39.592 67.1896 39.2914C67.6012 39.6632 68.0687 39.9806 68.5797 40.2415C68.1141 40.541 67.6512 40.9577 67.2516 41.522ZM71.8374 39.4844C70.1657 39.4844 68.6781 38.6744 67.8537 37.4522C68.2569 37.5032 68.6543 37.5889 69.0189 37.7473C69.1083 37.7849 69.202 37.8113 69.2999 37.8226C70.0318 37.9112 71.3168 37.9281 71.674 37.084C71.7263 36.9578 72.1684 35.831 71.7982 34.9078C71.4997 34.1655 70.7962 33.6078 69.8967 33.4157C69.1467 33.2672 68.5661 33.1582 68.1118 33.0777C68.9761 32.0607 70.3307 31.4241 71.8373 31.4241C74.4074 31.4241 76.4963 33.231 76.4963 35.4542C76.4963 37.6774 74.4076 39.4844 71.8374 39.4844ZM78.6507 42.3613C78.2499 43.5691 77.688 44.8125 76.9779 46.0599C75.9476 47.8667 75.4619 49.9129 75.5599 52.025C73.8609 50.6949 73.1639 48.5922 73.9328 46.6892C74.1441 46.173 74.4033 45.7 74.7039 45.2836C76.4965 42.8173 76.8298 41.0481 76.7861 39.9912C77.4156 40.0816 78.1279 40.2832 78.5069 40.6977C78.8444 41.0688 78.8945 41.6303 78.6507 42.3613Z" fill="#272727" fill-opacity="0.8"/>
</svg>
