<svg width="289" height="88" viewBox="0 0 289 88" fill="none" xmlns="http://www.w3.org/2000/svg">
<rect width="289" height="88" rx="12" fill="white"/>
<path d="M96.9116 22.1C96.5516 21.4067 96.0516 20.8867 95.4116 20.54C94.7716 20.18 94.0316 20 93.1916 20C92.2716 20 91.4516 20.2067 90.7316 20.62C90.0116 21.0333 89.4449 21.62 89.0316 22.38C88.6316 23.14 88.4316 24.02 88.4316 25.02C88.4316 26.02 88.6316 26.9067 89.0316 27.68C89.4449 28.44 90.0116 29.0267 90.7316 29.44C91.4516 29.8533 92.2716 30.06 93.1916 30.06C94.4316 30.06 95.4382 29.7133 96.2116 29.02C96.9849 28.3267 97.4582 27.3867 97.6316 26.2H92.4116V24.38H100.072V26.16C99.9249 27.24 99.5382 28.2333 98.9116 29.14C98.2982 30.0467 97.4916 30.7733 96.4916 31.32C95.5049 31.8533 94.4049 32.12 93.1916 32.12C91.8849 32.12 90.6916 31.82 89.6116 31.22C88.5316 30.6067 87.6716 29.76 87.0316 28.68C86.4049 27.6 86.0916 26.38 86.0916 25.02C86.0916 23.66 86.4049 22.44 87.0316 21.36C87.6716 20.28 88.5316 19.44 89.6116 18.84C90.7049 18.2267 91.8982 17.92 93.1916 17.92C94.6716 17.92 95.9849 18.2867 97.1316 19.02C98.2916 19.74 99.1316 20.7667 99.6516 22.1H96.9116ZM104.6 19.94V24.02H109.4V25.88H104.6V30.14H110V32H102.32V18.08H110V19.94H104.6ZM121.789 18.1V19.96H118.089V32H115.809V19.96H112.089V18.1H121.789ZM131.573 18.1V32H129.293V18.1H131.573ZM143.546 18.1V19.96H139.846V32H137.566V19.96H133.846V18.1H143.546ZM157.391 32.14C156.097 32.14 154.904 31.84 153.811 31.24C152.731 30.6267 151.871 29.78 151.231 28.7C150.604 27.6067 150.291 26.38 150.291 25.02C150.291 23.66 150.604 22.44 151.231 21.36C151.871 20.28 152.731 19.44 153.811 18.84C154.904 18.2267 156.097 17.92 157.391 17.92C158.697 17.92 159.891 18.2267 160.971 18.84C162.064 19.44 162.924 20.28 163.551 21.36C164.177 22.44 164.491 23.66 164.491 25.02C164.491 26.38 164.177 27.6067 163.551 28.7C162.924 29.78 162.064 30.6267 160.971 31.24C159.891 31.84 158.697 32.14 157.391 32.14ZM157.391 30.16C158.311 30.16 159.131 29.9533 159.851 29.54C160.571 29.1133 161.131 28.5133 161.531 27.74C161.944 26.9533 162.151 26.0467 162.151 25.02C162.151 23.9933 161.944 23.0933 161.531 22.32C161.131 21.5467 160.571 20.9533 159.851 20.54C159.131 20.1267 158.311 19.92 157.391 19.92C156.471 19.92 155.651 20.1267 154.931 20.54C154.211 20.9533 153.644 21.5467 153.231 22.32C152.831 23.0933 152.631 23.9933 152.631 25.02C152.631 26.0467 152.831 26.9533 153.231 27.74C153.644 28.5133 154.211 29.1133 154.931 29.54C155.651 29.9533 156.471 30.16 157.391 30.16ZM178.154 32H175.874L169.014 21.62V32H166.734V18.08H169.014L175.874 28.44V18.08H178.154V32Z" fill="#333333"/>
<path d="M102.56 51.15C102.02 50.11 101.27 49.33 100.31 48.81C99.3497 48.27 98.2397 48 96.9797 48C95.5997 48 94.3697 48.31 93.2897 48.93C92.2097 49.55 91.3597 50.43 90.7397 51.57C90.1397 52.71 89.8397 54.03 89.8397 55.53C89.8397 57.03 90.1397 58.36 90.7397 59.52C91.3597 60.66 92.2097 61.54 93.2897 62.16C94.3697 62.78 95.5997 63.09 96.9797 63.09C98.8397 63.09 100.35 62.57 101.51 61.53C102.67 60.49 103.38 59.08 103.64 57.3H95.8097V54.57H107.3V57.24C107.08 58.86 106.5 60.35 105.56 61.71C104.64 63.07 103.43 64.16 101.93 64.98C100.45 65.78 98.7997 66.18 96.9797 66.18C95.0197 66.18 93.2297 65.73 91.6097 64.83C89.9897 63.91 88.6997 62.64 87.7397 61.02C86.7997 59.4 86.3297 57.57 86.3297 55.53C86.3297 53.49 86.7997 51.66 87.7397 50.04C88.6997 48.42 89.9897 47.16 91.6097 46.26C93.2497 45.34 95.0397 44.88 96.9797 44.88C99.1997 44.88 101.17 45.43 102.89 46.53C104.63 47.61 105.89 49.15 106.67 51.15H102.56ZM117.843 66.27C116.283 66.27 114.873 65.92 113.613 65.22C112.353 64.5 111.363 63.5 110.643 62.22C109.923 60.92 109.563 59.42 109.563 57.72C109.563 56.04 109.933 54.55 110.673 53.25C111.413 51.95 112.423 50.95 113.703 50.25C114.983 49.55 116.413 49.2 117.993 49.2C119.573 49.2 121.003 49.55 122.283 50.25C123.563 50.95 124.573 51.95 125.313 53.25C126.053 54.55 126.423 56.04 126.423 57.72C126.423 59.4 126.043 60.89 125.283 62.19C124.523 63.49 123.483 64.5 122.163 65.22C120.863 65.92 119.423 66.27 117.843 66.27ZM117.843 63.3C118.723 63.3 119.543 63.09 120.303 62.67C121.083 62.25 121.713 61.62 122.193 60.78C122.673 59.94 122.913 58.92 122.913 57.72C122.913 56.52 122.683 55.51 122.223 54.69C121.763 53.85 121.153 53.22 120.393 52.8C119.633 52.38 118.813 52.17 117.933 52.17C117.053 52.17 116.233 52.38 115.473 52.8C114.733 53.22 114.143 53.85 113.703 54.69C113.263 55.51 113.043 56.52 113.043 57.72C113.043 59.5 113.493 60.88 114.393 61.86C115.313 62.82 116.463 63.3 117.843 63.3ZM136.974 66.27C135.414 66.27 134.004 65.92 132.744 65.22C131.484 64.5 130.494 63.5 129.774 62.22C129.054 60.92 128.694 59.42 128.694 57.72C128.694 56.04 129.064 54.55 129.804 53.25C130.544 51.95 131.554 50.95 132.834 50.25C134.114 49.55 135.544 49.2 137.124 49.2C138.704 49.2 140.134 49.55 141.414 50.25C142.694 50.95 143.704 51.95 144.444 53.25C145.184 54.55 145.554 56.04 145.554 57.72C145.554 59.4 145.174 60.89 144.414 62.19C143.654 63.49 142.614 64.5 141.294 65.22C139.994 65.92 138.554 66.27 136.974 66.27ZM136.974 63.3C137.854 63.3 138.674 63.09 139.434 62.67C140.214 62.25 140.844 61.62 141.324 60.78C141.804 59.94 142.044 58.92 142.044 57.72C142.044 56.52 141.814 55.51 141.354 54.69C140.894 53.85 140.284 53.22 139.524 52.8C138.764 52.38 137.944 52.17 137.064 52.17C136.184 52.17 135.364 52.38 134.604 52.8C133.864 53.22 133.274 53.85 132.834 54.69C132.394 55.51 132.174 56.52 132.174 57.72C132.174 59.5 132.624 60.88 133.524 61.86C134.444 62.82 135.594 63.3 136.974 63.3ZM155.595 49.2C156.875 49.2 158.005 49.46 158.985 49.98C159.985 50.48 160.765 51.11 161.325 51.87V49.47H164.775V66.27C164.775 67.79 164.455 69.14 163.815 70.32C163.175 71.52 162.245 72.46 161.025 73.14C159.825 73.82 158.385 74.16 156.705 74.16C154.465 74.16 152.605 73.63 151.125 72.57C149.645 71.53 148.805 70.11 148.605 68.31H151.995C152.255 69.17 152.805 69.86 153.645 70.38C154.505 70.92 155.525 71.19 156.705 71.19C158.085 71.19 159.195 70.77 160.035 69.93C160.895 69.09 161.325 67.87 161.325 66.27V63.51C160.745 64.29 159.955 64.95 158.955 65.49C157.975 66.01 156.855 66.27 155.595 66.27C154.155 66.27 152.835 65.91 151.635 65.19C150.455 64.45 149.515 63.43 148.815 62.13C148.135 60.81 147.795 59.32 147.795 57.66C147.795 56 148.135 54.53 148.815 53.25C149.515 51.97 150.455 50.98 151.635 50.28C152.835 49.56 154.155 49.2 155.595 49.2ZM161.325 57.72C161.325 56.58 161.085 55.59 160.605 54.75C160.145 53.91 159.535 53.27 158.775 52.83C158.015 52.39 157.195 52.17 156.315 52.17C155.435 52.17 154.615 52.39 153.855 52.83C153.095 53.25 152.475 53.88 151.995 54.72C151.535 55.54 151.305 56.52 151.305 57.66C151.305 58.8 151.535 59.8 151.995 60.66C152.475 61.52 153.095 62.18 153.855 62.64C154.635 63.08 155.455 63.3 156.315 63.3C157.195 63.3 158.015 63.08 158.775 62.64C159.535 62.2 160.145 61.56 160.605 60.72C161.085 59.86 161.325 58.86 161.325 57.72ZM172.687 43.8V66H169.267V43.8H172.687ZM192.327 57.33C192.327 57.95 192.287 58.51 192.207 59.01H179.577C179.677 60.33 180.167 61.39 181.047 62.19C181.927 62.99 183.007 63.39 184.287 63.39C186.127 63.39 187.427 62.62 188.187 61.08H191.877C191.377 62.6 190.467 63.85 189.147 64.83C187.847 65.79 186.227 66.27 184.287 66.27C182.707 66.27 181.287 65.92 180.027 65.22C178.787 64.5 177.807 63.5 177.087 62.22C176.387 60.92 176.037 59.42 176.037 57.72C176.037 56.02 176.377 54.53 177.057 53.25C177.757 51.95 178.727 50.95 179.967 50.25C181.227 49.55 182.667 49.2 184.287 49.2C185.847 49.2 187.237 49.54 188.457 50.22C189.677 50.9 190.627 51.86 191.307 53.1C191.987 54.32 192.327 55.73 192.327 57.33ZM188.757 56.25C188.737 54.99 188.287 53.98 187.407 53.22C186.527 52.46 185.437 52.08 184.137 52.08C182.957 52.08 181.947 52.46 181.107 53.22C180.267 53.96 179.767 54.97 179.607 56.25H188.757ZM218.065 51.36C218.065 52.42 217.815 53.42 217.315 54.36C216.815 55.3 216.015 56.07 214.915 56.67C213.815 57.25 212.405 57.54 210.685 57.54H206.905V66H203.485V45.15H210.685C212.285 45.15 213.635 45.43 214.735 45.99C215.855 46.53 216.685 47.27 217.225 48.21C217.785 49.15 218.065 50.2 218.065 51.36ZM210.685 54.75C211.985 54.75 212.955 54.46 213.595 53.88C214.235 53.28 214.555 52.44 214.555 51.36C214.555 49.08 213.265 47.94 210.685 47.94H206.905V54.75H210.685ZM224.747 43.8V66H221.327V43.8H224.747ZM228.097 57.66C228.097 56 228.437 54.53 229.117 53.25C229.817 51.97 230.757 50.98 231.937 50.28C233.137 49.56 234.457 49.2 235.897 49.2C237.197 49.2 238.327 49.46 239.287 49.98C240.267 50.48 241.047 51.11 241.627 51.87V49.47H245.077V66H241.627V63.54C241.047 64.32 240.257 64.97 239.257 65.49C238.257 66.01 237.117 66.27 235.837 66.27C234.417 66.27 233.117 65.91 231.937 65.19C230.757 64.45 229.817 63.43 229.117 62.13C228.437 60.81 228.097 59.32 228.097 57.66ZM241.627 57.72C241.627 56.58 241.387 55.59 240.907 54.75C240.447 53.91 239.837 53.27 239.077 52.83C238.317 52.39 237.497 52.17 236.617 52.17C235.737 52.17 234.917 52.39 234.157 52.83C233.397 53.25 232.777 53.88 232.297 54.72C231.837 55.54 231.607 56.52 231.607 57.66C231.607 58.8 231.837 59.8 232.297 60.66C232.777 61.52 233.397 62.18 234.157 62.64C234.937 63.08 235.757 63.3 236.617 63.3C237.497 63.3 238.317 63.08 239.077 62.64C239.837 62.2 240.447 61.56 240.907 60.72C241.387 59.86 241.627 58.86 241.627 57.72ZM264.449 49.47L254.309 73.77H250.769L254.129 65.73L247.619 49.47H251.429L256.079 62.07L260.909 49.47H264.449Z" fill="#333333"/>
<g clip-path="url(#clip0)">
<path d="M54.8725 39.721C50.2258 37.122 42.7677 32.9487 31.1995 26.4714C30.4196 25.9563 29.5223 25.8888 28.7469 26.1512L48.5946 45.9989L54.8725 39.721Z" fill="#32BBFF"/>
<path d="M28.747 26.1508C28.6017 26.2 28.4603 26.2594 28.325 26.3311C27.4689 26.7943 26.8397 27.6854 26.8397 28.8125V63.1845C26.8397 64.3116 27.4688 65.2028 28.325 65.6658C28.46 65.7375 28.6014 65.7971 28.7465 65.8466L48.5947 45.9985L28.747 26.1508Z" fill="#32BBFF"/>
<path d="M48.5947 45.9985L28.7466 65.8466C29.5221 66.111 30.4195 66.0487 31.1996 65.5261C42.4183 59.244 49.7923 55.1201 54.4928 52.499C54.6237 52.4255 54.7519 52.3536 54.8786 52.2825L48.5947 45.9985Z" fill="#32BBFF"/>
<path d="M26.8397 45.9985V63.1845C26.8397 64.3116 27.4688 65.2028 28.325 65.6658C28.46 65.7375 28.6014 65.7971 28.7465 65.8466L48.5947 45.9985H26.8397Z" fill="#2C9FD9"/>
<path d="M31.1996 26.4709C30.2734 25.8594 29.1812 25.8768 28.3251 26.3312L48.2935 46.2996L54.8725 39.7206C50.2259 37.1216 42.7678 32.9482 31.1996 26.4709Z" fill="#29CC5E"/>
<path d="M48.2936 45.6974L28.3251 65.6658C29.1813 66.1201 30.2734 66.1463 31.1996 65.526C42.4182 59.244 49.7923 55.1201 54.4928 52.499C54.6236 52.4254 54.7518 52.3536 54.8786 52.2824L48.2936 45.6974Z" fill="#D93F21"/>
<path d="M63.1602 45.9985C63.1602 45.0462 62.6796 44.0851 61.7272 43.5521C61.7272 43.5521 59.946 42.5583 54.4864 39.5045L47.9924 45.9985L54.4928 52.4989C59.8925 49.4671 61.7271 48.4448 61.7271 48.4448C62.6796 47.912 63.1602 46.9509 63.1602 45.9985Z" fill="#FFD500"/>
<path d="M61.7272 48.4449C62.6796 47.912 63.1602 46.9509 63.1602 45.9985H47.9924L54.4928 52.4989C59.8925 49.4672 61.7272 48.4449 61.7272 48.4449Z" fill="#FFAA00"/>
</g>
<defs>
<clipPath id="clip0">
<rect width="40" height="40" fill="white" transform="translate(25 26)"/>
</clipPath>
</defs>
</svg>
