<svg width="95" height="100" viewBox="0 0 95 100" fill="none" xmlns="http://www.w3.org/2000/svg">
<ellipse cx="47.7287" cy="50" rx="47.0905" ry="50" fill="white"/>
<path d="M94.3192 50C94.3192 77.3668 73.4321 99.5 47.7287 99.5C22.0253 99.5 1.13818 77.3668 1.13818 50C1.13818 22.6332 22.0253 0.5 47.7287 0.5C73.4321 0.5 94.3192 22.6332 94.3192 50Z" stroke="#212121" stroke-opacity="0.5"/>
<g clip-path="url(#clip0)">
<path d="M70.6916 47.3914V55.1698C69.8802 54.392 68.9876 53.9058 67.9328 53.7114V52.4474C67.9328 39.4185 58.845 28.8203 47.7288 28.8203C36.6125 28.8203 27.5248 39.5157 27.5248 52.5446V53.8086C26.4699 54.0031 25.5774 54.4892 24.766 55.2671V47.4886C24.766 32.6123 35.0708 20.5557 47.7288 20.5557C60.3867 20.4585 70.6916 32.5151 70.6916 47.3914Z" stroke="#272727" stroke-opacity="0.8" stroke-width="2" stroke-miterlimit="10" stroke-linecap="round" stroke-linejoin="round"/>
<path d="M62.7398 48.8499C60.3867 48.8499 58.4393 51.1834 58.4393 54.1003V67.4209C58.4393 70.3379 60.3867 72.6714 62.7398 72.6714C65.0929 72.6714 67.0402 70.3379 67.0402 67.4209V54.0031C67.0402 51.1834 65.0929 48.8499 62.7398 48.8499Z" stroke="#272727" stroke-opacity="0.8" stroke-width="2" stroke-miterlimit="10" stroke-linecap="round" stroke-linejoin="round"/>
<path d="M72.8824 60.712C72.8824 64.6012 70.2859 67.7126 67.0403 67.7126V53.7114C67.3648 53.7114 67.6083 53.7114 67.9328 53.8086C68.9877 54.0031 69.8802 54.4892 70.6916 55.2671C72.071 56.5311 72.8824 58.4757 72.8824 60.712Z" stroke="#272727" stroke-opacity="0.8" stroke-width="2" stroke-miterlimit="10" stroke-linecap="round" stroke-linejoin="round"/>
<path d="M32.7178 48.8499C30.3647 48.8499 28.4174 51.1834 28.4174 54.1003V67.4209C28.4174 70.3379 30.3647 72.6714 32.7178 72.6714C35.0709 72.6714 37.0183 70.3379 37.0183 67.4209V54.0031C37.0183 51.1834 35.0709 48.8499 32.7178 48.8499Z" stroke="#272727" stroke-opacity="0.8" stroke-width="2" stroke-miterlimit="10" stroke-linecap="round" stroke-linejoin="round"/>
<path d="M28.4173 53.7114V67.8098C25.1717 67.8098 22.5752 64.6985 22.5752 60.8092C22.5752 58.5729 23.3866 56.6283 24.766 55.3643C25.5774 54.5865 26.4699 54.1003 27.5248 53.9058C27.7682 53.7114 28.0928 53.7114 28.4173 53.7114Z" stroke="#272727" stroke-opacity="0.8" stroke-width="2" stroke-miterlimit="10" stroke-linecap="round" stroke-linejoin="round"/>
<path d="M70.935 63.0455C71.3407 61.976 71.0161 60.712 70.1236 60.2258C69.231 59.7397 68.1762 60.1286 67.7705 61.1982C67.4459 61.976 67.6082 62.8511 68.0139 63.5317L66.6345 67.032L67.9328 67.8098L69.3122 64.3095C69.9613 64.3095 70.6104 63.8234 70.935 63.0455Z" stroke="#272727" stroke-opacity="0.8" stroke-width="2" stroke-miterlimit="10" stroke-linecap="round" stroke-linejoin="round"/>
<path d="M49.2704 80.7415C50.57 80.7415 51.6235 79.8709 51.6235 78.7969C51.6235 77.7229 50.57 76.8523 49.2704 76.8523C47.9709 76.8523 46.9174 77.7229 46.9174 78.7969C46.9174 79.8709 47.9709 80.7415 49.2704 80.7415Z" stroke="#272727" stroke-opacity="0.8" stroke-width="2" stroke-miterlimit="10" stroke-linecap="round" stroke-linejoin="round"/>
<path d="M51.6235 78.7969C51.6235 78.7969 63.2266 76.8523 67.0402 67.3237" stroke="#272727" stroke-opacity="0.8" stroke-width="2" stroke-miterlimit="10" stroke-linecap="round" stroke-linejoin="round"/>
</g>
<defs>
<clipPath id="clip0">
<rect width="52.7414" height="79" fill="white" transform="translate(21.358 19)"/>
</clipPath>
</defs>
</svg>
