<svg width="95" height="106" viewBox="0 0 95 106" fill="none" xmlns="http://www.w3.org/2000/svg">
<ellipse cx="47.0905" cy="50" rx="47.0905" ry="50" fill="white"/>
<path d="M93.6811 50C93.6811 77.3668 72.794 99.5 47.0905 99.5C21.3871 99.5 0.5 77.3668 0.5 50C0.5 22.6332 21.3871 0.5 47.0905 0.5C72.794 0.5 93.6811 22.6332 93.6811 50Z" stroke="#212121" stroke-opacity="0.5"/>
<path d="M73.7014 30.304H68.8755V26.352C68.8755 25.516 68.3585 24.832 67.7265 24.832C60.775 24.832 53.9384 26.656 47.504 30.152C41.0695 26.58 34.2904 24.832 27.2814 24.832C26.6495 24.832 26.1324 25.516 26.1324 26.352V30.304H21.4215C20.7895 30.304 20.2725 30.988 20.2725 31.824V71.724C20.2725 72.56 20.7895 73.244 21.4215 73.244H73.7588C74.3908 73.244 74.9078 72.56 74.9078 71.724V31.748C74.8504 30.988 74.3333 30.304 73.7014 30.304ZM22.513 70.204V33.268H26.2473V66.252C26.2473 67.088 26.7644 67.772 27.3963 67.772C31.9924 67.772 36.4735 68.684 40.8397 70.28H22.513V70.204ZM46.4124 69.52C40.6674 66.556 34.6351 64.884 28.4304 64.732V27.796C34.6925 28.024 40.6674 29.696 46.4124 32.812V69.52ZM48.7104 32.812C54.4555 29.696 60.4878 28.024 66.6924 27.796V64.732C60.4303 64.884 54.4555 66.556 48.7104 69.52V32.812ZM72.6098 70.204H54.2831C58.6494 68.608 63.1305 67.696 67.7265 67.696C68.3585 67.696 68.8755 67.012 68.8755 66.176V33.268H72.6098V70.204Z" fill="#272727" fill-opacity="0.8"/>
<path d="M32.6817 37.296C35.7266 37.752 38.7715 38.512 41.7014 39.728C41.8163 39.804 41.9312 39.804 42.0461 39.804C42.5057 39.804 42.9653 39.348 43.1377 38.74C43.31 37.98 42.9653 37.144 42.3908 36.916C39.2885 35.7 36.1287 34.864 32.969 34.408C32.337 34.332 31.82 34.94 31.7051 35.7C31.6476 36.46 32.1072 37.22 32.6817 37.296Z" fill="#272727" fill-opacity="0.8"/>
<path d="M32.6817 44.516C35.7266 44.972 38.7715 45.732 41.7014 46.948C41.8163 47.024 41.9312 47.024 42.0461 47.024C42.5057 47.024 42.9653 46.644 43.1377 45.96C43.31 45.2 42.9653 44.364 42.3908 44.136C39.2885 42.92 36.1287 42.084 32.969 41.628C32.337 41.552 31.82 42.16 31.7051 42.92C31.6476 43.68 32.1072 44.364 32.6817 44.516Z" fill="#272727" fill-opacity="0.8"/>
<path d="M32.6817 51.66C35.7266 52.116 38.7715 52.876 41.7014 54.092C41.8163 54.168 41.9312 54.168 42.0461 54.168C42.5057 54.168 42.9653 53.788 43.1377 53.104C43.31 52.344 42.9653 51.508 42.3908 51.28C39.2885 50.064 36.1287 49.228 32.969 48.772C32.337 48.696 31.82 49.304 31.7051 50.064C31.6476 50.824 32.1072 51.584 32.6817 51.66Z" fill="#272727" fill-opacity="0.8"/>
<path d="M32.6818 58.88C35.7266 59.336 38.7715 60.096 41.7015 61.312C41.8164 61.388 41.9313 61.388 42.0462 61.388C42.5058 61.388 42.9654 61.008 43.1377 60.324C43.3101 59.564 42.9654 58.728 42.3909 58.5C39.2886 57.284 36.1288 56.448 32.969 55.992C32.337 55.916 31.82 56.524 31.7051 57.284C31.5902 58.044 32.1072 58.804 32.6818 58.88Z" fill="#272727" fill-opacity="0.8"/>
<path d="M55.4896 36.004C53.6512 37.068 52.3873 39.5 52.3298 42.236L52.1575 48.012C52.1575 49 52.732 49.912 53.5363 49.912H54.0533L53.0192 58.424C52.8469 59.716 53.6512 60.932 54.6278 60.932C55.547 60.932 56.2364 59.944 56.2364 58.804V36.764C56.2939 36.08 55.8917 35.776 55.4896 36.004Z" fill="#272727" fill-opacity="0.8"/>
<path d="M62.6134 35.928C62.2687 35.928 62.0388 36.232 62.0388 36.688V42.464C62.0388 42.692 61.9239 42.844 61.7516 42.844H61.3494C61.1771 42.844 61.0622 42.692 61.0622 42.464V36.688C61.0622 36.232 60.8324 35.928 60.4877 35.928C60.143 35.928 59.9132 36.232 59.9132 36.688V42.464C59.9132 42.692 59.7983 42.844 59.6259 42.844H59.2812C59.1089 42.844 58.994 42.692 58.994 42.464V36.688C58.994 36.232 58.7642 35.928 58.4195 35.928C58.0748 35.928 57.845 36.232 57.845 36.688V43.452C57.845 44.44 58.4769 45.2 59.1663 45.2H59.4536L58.8216 58.576C58.7642 59.792 59.511 60.856 60.4302 60.856H60.4877C61.4069 60.856 62.1538 59.792 62.0963 58.576L61.5218 45.2H61.8091C62.5559 45.2 63.1304 44.364 63.1304 43.452V36.688C63.1879 36.232 62.9006 35.928 62.6134 35.928Z" fill="#272727" fill-opacity="0.8"/>
</svg>
